<svg width="46" height="19" viewBox="0 0 46 19" fill="none" xmlns="http://www.w3.org/2000/svg">
<path d="M3.61914 0.359375V16H0.396484V0.359375H3.61914ZM9.84961 7.04102V9.55469H2.73828V7.04102H9.84961ZM10.6016 0.359375V2.88379H2.73828V0.359375H10.6016ZM20.8535 3.03418L16.5996 16H13.1729L18.9844 0.359375H21.165L20.8535 3.03418ZM24.3877 16L20.123 3.03418L19.7793 0.359375H21.9814L27.8252 16H24.3877ZM24.1943 10.1777V12.7021H15.9336V10.1777H24.1943ZM41.5791 13.6797L45.8115 17.0312L43.7812 18.793L39.6133 15.4414L41.5791 13.6797ZM45.9189 7.81445V8.55566C45.9189 9.74447 45.7578 10.8115 45.4355 11.7568C45.1204 12.7021 44.6657 13.5078 44.0713 14.1738C43.4769 14.8327 42.7751 15.3376 41.9658 15.6885C41.1566 16.0394 40.2578 16.2148 39.2695 16.2148C38.2884 16.2148 37.3896 16.0394 36.5732 15.6885C35.7568 15.3376 35.0514 14.8327 34.457 14.1738C33.8626 13.5078 33.4007 12.7021 33.0713 11.7568C32.749 10.8115 32.5879 9.74447 32.5879 8.55566V7.81445C32.5879 6.61849 32.749 5.55143 33.0713 4.61328C33.4007 3.66797 33.859 2.8623 34.4463 2.19629C35.0335 1.53027 35.7354 1.02181 36.5518 0.670898C37.3682 0.319987 38.2669 0.144531 39.248 0.144531C40.2363 0.144531 41.1351 0.319987 41.9443 0.670898C42.7607 1.02181 43.4661 1.53027 44.0605 2.19629C44.6549 2.8623 45.1133 3.66797 45.4355 4.61328C45.7578 5.55143 45.9189 6.61849 45.9189 7.81445ZM42.6641 8.55566V7.79297C42.6641 6.96224 42.5853 6.23177 42.4277 5.60156C42.2773 4.97135 42.0553 4.44141 41.7617 4.01172C41.4753 3.58203 41.1208 3.25977 40.6982 3.04492C40.2757 2.82292 39.7923 2.71191 39.248 2.71191C38.7038 2.71191 38.2204 2.82292 37.7979 3.04492C37.3753 3.25977 37.0208 3.58203 36.7344 4.01172C36.4479 4.44141 36.2295 4.97135 36.0791 5.60156C35.9287 6.23177 35.8535 6.96224 35.8535 7.79297V8.55566C35.8535 9.37923 35.9287 10.1097 36.0791 10.7471C36.2295 11.3773 36.4479 11.9108 36.7344 12.3477C37.028 12.7773 37.3861 13.1032 37.8086 13.3252C38.2383 13.5472 38.7253 13.6582 39.2695 13.6582C39.8138 13.6582 40.2936 13.5472 40.709 13.3252C41.1315 13.1032 41.486 12.7773 41.7725 12.3477C42.0661 11.9108 42.2881 11.3773 42.4385 10.7471C42.5889 10.1097 42.6641 9.37923 42.6641 8.55566Z" fill="#FF8A56"/>
</svg>
